<?xml version="1.0" standalone="no"?>
<!DOCTYPE svg PUBLIC "-//W3C//DTD SVG 20010904//EN"
 "http://www.w3.org/TR/2001/REC-SVG-20010904/DTD/svg10.dtd">
<svg version="1.0" xmlns="http://www.w3.org/2000/svg"
 width="284.000000pt" height="177.000000pt" viewBox="0 0 284.000000 177.000000"
 preserveAspectRatio="xMidYMid meet">

<g transform="translate(0.000000,177.000000) scale(0.100000,-0.100000)"
fill="#000000" stroke="none">
<path d="M0 885 l0 -885 1420 0 1420 0 0 885 0 885 -1420 0 -1420 0 0 -885z
m1675 515 c-28 -12 -37 -12 -30 0 3 6 16 10 28 9 21 0 21 -1 2 -9z m230 0 c3
-6 -1 -7 -9 -4 -18 7 -21 14 -7 14 6 0 13 -4 16 -10z m92 4 c-3 -3 -12 -4 -19
-1 -8 3 -5 6 6 6 11 1 17 -2 13 -5z m60 -64 c1 -11 -2 -20 -8 -20 -5 0 -9 9
-9 20 0 11 4 20 8 20 4 0 8 -9 9 -20z m117 -12 c7 -5 4 -8 -6 -8 -12 0 -18 7
-17 23 0 15 2 17 6 7 3 -8 11 -18 17 -22z m-449 3 c-3 -6 -11 -11 -17 -11 -6
0 -6 6 2 15 14 17 26 13 15 -4z m278 4 c17 5 19 4 7 -4 -22 -16 -46 -13 -61 6
-13 15 -12 15 9 4 12 -7 33 -9 45 -6z m127 1 c0 -3 -4 -8 -10 -11 -5 -3 -10
-1 -10 4 0 6 5 11 10 11 6 0 10 -2 10 -4z m-447 -13 c-7 -2 -21 -2 -30 0 -10
3 -4 5 12 5 17 0 24 -2 18 -5z m-29 -38 c-4 -8 -8 -15 -10 -15 -2 0 -4 7 -4
15 0 8 4 15 10 15 5 0 7 -7 4 -15z m96 11 c0 -3 -4 -8 -10 -11 -5 -3 -10 -1
-10 4 0 6 5 11 10 11 6 0 10 -2 10 -4z m93 -3 c-8 -2 -13 -22 -13 -44 0 -21
-4 -39 -10 -39 -5 0 -10 18 -10 39 0 22 -5 42 -12 44 -7 3 3 5 22 5 19 0 29
-2 23 -5z m-157 -76 c4 -4 -5 -7 -19 -7 -15 0 -27 4 -27 8 0 10 36 9 46 -1z
m34 3 c0 -5 -4 -10 -10 -10 -5 0 -10 5 -10 10 0 6 5 10 10 10 6 0 10 -4 10
-10z m-60 -46 c0 -14 4 -23 10 -19 6 3 10 15 10 26 0 27 18 24 26 -6 3 -14 11
-22 16 -19 5 4 8 -4 6 -17 -5 -34 -28 -36 -29 -2 l-1 28 -11 -27 c-15 -38 -24
-35 -36 10 -13 46 -13 52 -1 52 6 0 10 -12 10 -26z m178 14 c23 -23 8 -78 -20
-78 -5 0 -1 12 9 26 16 26 16 27 -6 45 -15 12 -18 19 -9 19 8 0 19 -5 26 -12z
m88 -3 c4 -8 1 -22 -6 -30 -10 -12 -10 -18 0 -30 10 -12 10 -15 -4 -15 -9 0
-16 6 -17 13 0 10 -2 10 -6 0 -11 -28 -23 -11 -23 32 0 41 2 45 25 45 14 0 28
-7 31 -15z m34 0 c0 -9 6 -12 17 -8 11 4 14 3 9 -6 -4 -6 0 -23 8 -36 18 -27
6 -35 -14 -10 -7 8 -16 12 -21 9 -5 -3 -9 -2 -10 3 0 4 -3 20 -5 36 -3 15 0
27 6 27 5 0 10 -7 10 -15z m-175 -55 c16 -18 16 -20 2 -20 -9 0 -21 9 -27 20
-6 11 -7 20 -2 20 5 0 17 -9 27 -20z m140 -39 c3 -5 1 -12 -5 -16 -5 -3 -10 1
-10 9 0 18 6 21 15 7z m-50 -11 c3 -5 1 -10 -4 -10 -6 0 -11 5 -11 10 0 6 2
10 4 10 3 0 8 -4 11 -10z m-228 -22 c-3 -8 -6 -5 -6 6 -1 11 2 17 5 13 3 -3 4
-12 1 -19z m197 -57 c-3 -3 -11 2 -18 12 -7 9 -22 17 -32 18 -18 0 -18 1 1 9
15 6 25 3 38 -12 10 -12 15 -24 11 -27z m56 18 c0 -11 -4 -18 -10 -14 -5 3 -7
12 -3 20 7 21 13 19 13 -6z m-245 1 c3 -5 13 -6 22 -3 11 4 14 3 9 -5 -10 -16
-31 -15 -46 3 -8 9 -9 15 -2 15 6 0 13 -4 17 -10z m85 -5 c0 -8 -4 -15 -10
-15 -5 0 -10 7 -10 15 0 8 5 15 10 15 6 0 10 -7 10 -15z m40 1 c0 -3 -4 -8
-10 -11 -5 -3 -10 -1 -10 4 0 6 5 11 10 11 6 0 10 -2 10 -4z m-95 -71 c0 -36
-3 -40 -27 -43 -27 -3 -28 -2 -28 43 0 45 1 46 28 43 24 -3 27 -7 27 -43z m45
5 c0 -22 5 -40 10 -40 6 0 10 18 10 40 0 22 5 40 10 40 16 0 12 -76 -5 -90
-12 -10 -18 -10 -30 0 -17 14 -21 90 -5 90 6 0 10 -18 10 -40z m80 -5 c0 -25
-4 -45 -10 -45 -5 0 -10 20 -10 45 0 25 5 45 10 45 6 0 10 -20 10 -45z m39 28
c-4 -41 2 -62 19 -66 10 -3 6 -5 -10 -6 -27 -1 -28 1 -28 44 0 25 5 45 11 45
5 0 9 -8 8 -17z m99 5 c17 -17 15 -65 -4 -72 -42 -16 -54 -8 -54 39 0 40 2 45
23 45 13 0 28 -5 35 -12z m-23 -108 c8 -12 -6 -41 -16 -34 -5 3 -7 9 -4 14 3
5 1 11 -4 14 -23 14 -20 -16 4 -41 14 -16 20 -30 14 -32 -5 -1 -17 5 -24 15
-13 18 -14 18 -15 2 0 -10 -4 -18 -10 -18 -9 0 -12 76 -4 91 5 8 53 -1 59 -11z
m59 14 c23 -9 20 -51 -4 -57 -11 -3 -20 -12 -20 -21 0 -9 -4 -16 -9 -16 -5 0
-9 23 -9 50 -1 51 6 58 42 44z m53 -15 c6 -21 6 -21 24 2 22 30 37 18 15 -13
-9 -12 -16 -33 -16 -45 0 -33 -13 -28 -26 10 -6 17 -14 40 -19 50 -4 11 -3 17
5 17 6 0 14 -10 17 -21z m-380 -16 l10 -28 6 28 c9 34 27 35 27 1 0 -14 -4
-23 -10 -19 -6 4 -10 -5 -10 -20 0 -39 -21 -26 -35 23 -14 46 -2 59 12 15z
m83 13 c0 -23 -22 -76 -31 -76 -12 0 -11 37 1 45 6 3 10 15 10 26 0 10 5 19
10 19 6 0 10 -6 10 -14z m38 -18 c-3 -29 0 -33 22 -33 35 0 41 41 8 54 -21 9
-21 10 -2 10 26 1 44 -17 44 -44 0 -28 -19 -45 -50 -45 -31 0 -50 17 -50 45 0
18 16 45 27 45 2 0 2 -15 1 -32z m218 -55 c-7 -7 -26 7 -26 19 0 6 6 6 15 -2
9 -7 13 -15 11 -17z m-307 -32 c8 -14 7 -22 -6 -32 -14 -12 -15 -11 -9 7 5 17
2 23 -15 27 -16 4 -19 2 -14 -11 8 -20 8 -20 6 -49 -2 -46 -21 -21 -21 27 0
46 2 50 25 50 14 0 29 -8 34 -19z m71 9 c0 -5 -7 -10 -15 -10 -8 0 -15 -4 -15
-10 0 -5 7 -10 15 -10 8 0 15 -4 15 -10 0 -5 -7 -10 -15 -10 -8 0 -15 -4 -15
-10 0 -5 7 -10 15 -10 8 0 15 -4 15 -10 0 -5 -11 -10 -25 -10 -23 0 -25 3 -25
50 0 47 2 50 25 50 14 0 25 -4 25 -10z m175 -2 c2 -2 6 -15 10 -29 5 -21 1
-29 -20 -43 -39 -26 -54 -15 -52 39 1 44 2 45 30 41 16 -3 30 -6 32 -8z m-112
-5 c-7 -2 -13 -12 -12 -21 0 -11 2 -12 6 -4 8 21 21 13 32 -20 12 -35 5 -53
-10 -25 -13 22 -35 22 -48 0 -5 -10 -12 -15 -16 -11 -10 9 33 88 48 87 9 0 9
-2 0 -6z m-135 -71 c6 -18 -15 -14 -22 4 -4 10 -1 14 6 12 6 -2 14 -10 16 -16z
m-3 -47 c1 -11 4 -25 7 -30 4 -6 3 -16 -1 -23 -10 -17 -53 -20 -58 -4 -3 9 2
12 13 10 14 -2 20 4 22 25 3 22 -1 27 -17 27 -12 0 -21 5 -21 11 0 6 12 9 28
7 19 -2 27 -9 27 -23z m75 15 c0 -5 -7 -10 -15 -10 -8 0 -15 -4 -15 -10 0 -5
7 -10 15 -10 8 0 15 -5 15 -11 0 -6 -7 -9 -15 -5 -9 3 -15 0 -15 -9 0 -9 6
-12 15 -9 9 4 15 0 15 -10 0 -17 -9 -20 -34 -10 -11 4 -16 19 -16 50 0 40 2
44 25 44 14 0 25 -4 25 -10z m61 -123 c4 -34 -22 -79 -37 -64 -3 3 1 13 10 22
18 19 6 55 -19 55 -20 0 -36 -33 -24 -51 13 -21 11 -33 -5 -20 -22 18 -14 64
13 78 27 13 60 2 62 -20z m-161 4 c0 -11 7 -26 15 -35 17 -17 20 -36 5 -36 -5
0 -17 16 -25 36 -18 43 -19 54 -5 54 6 0 10 -9 10 -19z m48 -1 c-7 -10 -14
-18 -15 -16 -6 6 9 36 18 36 5 0 4 -9 -3 -20z m152 -15 c0 -24 5 -35 15 -35 8
0 15 -4 15 -10 0 -5 -11 -10 -25 -10 -23 0 -25 4 -25 45 0 25 5 45 10 45 6 0
10 -16 10 -35z m59 -13 c7 -32 6 -42 -2 -39 -7 2 -13 23 -14 47 -3 52 3 49 16
-8z m41 11 c0 -28 -3 -34 -10 -23 -13 20 -13 60 0 60 6 0 10 -17 10 -37z m50
33 c0 -2 3 -12 7 -22 4 -12 3 -15 -5 -10 -8 5 -12 -3 -12 -23 0 -17 -4 -31
-10 -31 -5 0 -10 20 -10 45 0 33 4 45 15 45 8 0 15 -2 15 -4z m50 -21 c0 -14
-4 -25 -10 -25 -5 0 -10 11 -10 25 0 14 5 25 10 25 6 0 10 -11 10 -25z m51 11
c-6 -7 -8 -27 -5 -45 4 -20 3 -31 -5 -31 -6 0 -11 17 -11 39 0 22 -5 42 -12
44 -7 3 0 6 16 6 23 1 26 -2 17 -13z m127 7 c-10 -2 -18 -9 -18 -15 0 -6 -3
-9 -6 -5 -10 10 6 27 24 26 15 -1 15 -2 0 -6z m72 0 c-22 -9 -28 -23 -23 -54
2 -17 0 -29 -6 -29 -6 0 -11 20 -11 45 0 43 1 45 28 44 16 0 21 -3 12 -6z
m-261 -59 c6 4 11 0 11 -8 0 -9 -7 -16 -15 -16 -8 0 -15 2 -15 4 0 2 -3 13 -6
23 -4 14 -4 15 4 4 5 -7 15 -10 21 -7z m275 -9 c3 -8 1 -15 -4 -15 -6 0 -10 7
-10 15 0 8 2 15 4 15 2 0 6 -7 10 -15z m-134 -5 c0 -5 -11 -10 -25 -10 -14 0
-25 5 -25 10 0 6 11 10 25 10 14 0 25 -4 25 -10z m-496 -45 c3 -8 -2 -22 -11
-31 -14 -13 -14 -17 -2 -25 9 -5 10 -9 2 -9 -21 0 -25 19 -11 50 15 35 14 34
22 15z m98 -24 c1 -17 5 -31 10 -31 5 0 6 -4 3 -10 -14 -22 -23 -7 -23 36 0
50 9 55 10 5z m88 19 c-6 -11 -15 -20 -21 -20 -6 0 -6 7 1 20 6 11 15 20 21
20 6 0 6 -7 -1 -20z m-120 -21 c0 -5 -7 -9 -15 -9 -8 0 -15 -4 -15 -10 0 -5 7
-10 15 -10 8 0 15 -4 15 -10 0 -5 -11 -10 -25 -10 -21 0 -25 5 -25 28 0 22 5
27 25 28 14 1 25 -2 25 -7z m-114 -24 c1 -14 -2 -25 -6 -25 -6 0 -7 36 -1 48
4 7 6 -1 7 -23z m267 -5 c3 -11 2 -20 -3 -20 -4 0 -10 11 -12 25 -6 29 7 25
15 -5z m65 18 c-2 -4 6 -14 17 -22 11 -9 15 -16 9 -16 -6 0 -17 7 -25 16 -12
14 -14 14 -26 -2 -7 -10 -16 -15 -20 -11 -8 9 27 49 40 44 4 -1 7 -6 5 -9z"/>
<path d="M1893 1183 c-7 -3 -13 -8 -13 -13 0 -11 28 -21 34 -12 7 12 -8 29
-21 25z"/>
<path d="M1650 925 c0 -9 5 -15 11 -13 6 2 11 8 11 13 0 5 -5 11 -11 13 -6 2
-11 -4 -11 -13z"/>
<path d="M1910 940 c0 -32 11 -38 29 -16 14 16 4 46 -15 46 -9 0 -14 -11 -14
-30z"/>
<path d="M1960 850 c0 -5 4 -10 9 -10 6 0 13 5 16 10 3 6 -1 10 -9 10 -9 0
-16 -4 -16 -10z"/>
<path d="M1890 730 c0 -25 4 -31 18 -28 11 2 17 12 17 28 0 16 -6 26 -17 28
-14 3 -18 -3 -18 -28z"/>
</g>
</svg>
